HIERARCHY
ROOT Hips
{
	OFFSET 0.000000 8.830580 0.000000
	CHANNELS 6 Xposition Yposition Zposition Zrotation Yrotation Xrotation 
	JOINT Spine
	{
		OFFSET 0.000000 0.010000 0.000000
		CHANNELS 3 Zrotation Yrotation Xrotation
		JOINT Spine1
		{
			OFFSET 0.000000 2.459130 0.000000
			CHANNELS 3 Zrotation Yrotation Xrotation
			JOINT Neck
			{
				OFFSET 0.000000 2.484630 0.000000
				CHANNELS 3 Zrotation Yrotation Xrotation
				JOINT Head_virtual
				{
					OFFSET 0.000000 0.000000 0.000000
					CHANNELS 3 Zrotation Yrotation Xrotation
					JOINT Head
					{
						OFFSET 0.000000 0.927525 0.000000
						CHANNELS 3 Zrotation Yrotation Xrotation
						End Site
						{
							OFFSET 0.000000 0.000000 0.000000
						}
					}
				}
				JOINT LeftUpArm_virtual
				{
					OFFSET 0.000000 0.000000 0.000000
					CHANNELS 3 Zrotation Yrotation Xrotation
					JOINT LeftUpArm
					{
						OFFSET 1.248820 0.000000 0.000000
						CHANNELS 3 Zrotation Yrotation Xrotation
						JOINT LeftForeArm
						{
							OFFSET 2.597580 0.000000 0.000000
							CHANNELS 3 Zrotation Yrotation Xrotation
							JOINT LeftHand
							{
								OFFSET 2.455420 0.000000 0.000000
								CHANNELS 3 Zrotation Yrotation Xrotation
								End Site
								{
									OFFSET 0.000000 0.000000 0.000000
								}
							}
						}
					}
				}
				JOINT RightUpArm_virtual
				{
					OFFSET -0.000000 -0.000000 -0.000000
					CHANNELS 3 Zrotation Yrotation Xrotation
					JOINT RightUpArm
					{
						OFFSET -1.248820 -0.000000 -0.000000
						CHANNELS 3 Zrotation Yrotation Xrotation
						JOINT RightForeArm
						{
							OFFSET -2.597580 -0.000000 -0.000000
							CHANNELS 3 Zrotation Yrotation Xrotation
							JOINT RightHand
							{
								OFFSET -2.455420 -0.000000 -0.000000
								CHANNELS 3 Zrotation Yrotation Xrotation
								End Site
								{
									OFFSET 0.000000 0.000000 0.000000
								}
							}
						}
					}
				}
			}
		}
	}
	JOINT LeftUpLeg
	{
		OFFSET 1.271939 0.000000 0.000000
		CHANNELS 3 Zrotation Yrotation Xrotation
		JOINT LeftLowLeg
		{
			OFFSET 0.000000 -4.342910 0.000000
			CHANNELS 3 Zrotation Yrotation Xrotation
			JOINT LeftFoot
			{
				OFFSET 0.000000 -4.487670 0.000000
				CHANNELS 3 Zrotation Yrotation Xrotation
				JOINT LeftToeBase
				{
					OFFSET 0.000000 0.000000 1.515070
					CHANNELS 3 Zrotation Yrotation Xrotation
					End Site
					{
						OFFSET 0.000000 0.000000 0.000000
					}
				}
			}
		}
	}
	JOINT RightUpLeg
	{
		OFFSET -1.271939 0.000000 0.000000
		CHANNELS 3 Zrotation Yrotation Xrotation
		JOINT RightLowLeg
		{
			OFFSET 0.000000 -4.342910 0.000000
			CHANNELS 3 Zrotation Yrotation Xrotation
			JOINT RightFoot
			{
				OFFSET 0.000000 -4.487670 0.000000
				CHANNELS 3 Zrotation Yrotation Xrotation
				JOINT RightToeBase
				{
					OFFSET 0.000000 0.000000 1.515070
					CHANNELS 3 Zrotation Yrotation Xrotation
					End Site
					{
						OFFSET 0.000000 0.000000 0.000000
					}
				}
			}
		}
	}
}
MOTION
Frames: 17
Frame Time: 0.041667
-17.224051 6.718365 38.744333 -174.981653 -5.686051 -173.258279 12.213027 7.832177 0.894663 -11.949469 -7.370907 -13.853333 0.000000 0.000000 0.000000 1.971456 -2.097652 6.704355 -25.397664 -5.823341 -82.655453 -26.737700 -3.734970 15.631800 -36.284401 -30.998600 -11.604004 180.000000 -28.826004 -180.000000 32.139198 25.840500 50.766998 32.482300 -4.373700 7.535920 43.467602 21.096800 2.795990 180.000000 38.473007 180.000000 -36.050499 3.039510 19.271999 4.321578 -3.999095 -75.799719 0.000000 0.000000 93.874603 -10.637230 -3.089581 12.986205 0.000000 0.000000 -37.199600 12.362644 -0.178952 -71.354725 0.000000 0.000000 87.682602 12.833477 4.249295 14.343938 0.000000 0.000000 -42.647499 
-17.220831 6.717137 38.745000 -174.976643 -5.649657 -173.378345 11.962552 7.868124 0.761507 -11.697601 -7.365384 -13.833586 0.000000 0.000000 0.000000 2.007351 -1.629221 6.877842 -24.780676 -5.614916 -82.935417 -26.686800 -3.655090 15.443200 -36.075298 -31.076599 -11.640991 -180.000000 -28.912994 180.000000 31.950800 25.939301 50.682007 32.515202 -4.293130 7.659020 43.321499 21.222000 2.704530 180.000000 38.453003 180.000000 -35.379002 3.171330 18.937099 4.329468 -3.933162 -75.701306 0.000000 0.000000 93.901001 -10.631536 -3.134195 13.001037 0.000000 0.000000 -37.190901 12.469191 -0.200379 -71.209030 0.000000 0.000000 87.661400 12.568419 4.070979 14.163976 0.000000 0.000000 -42.530500 
-17.218089 6.717711 38.746616 -174.973531 -5.564544 -173.448835 11.613101 7.972824 0.596219 -11.340264 -7.321650 -13.869923 0.000000 0.000000 0.000000 2.255820 -1.300079 7.234270 -24.350567 -5.279881 -83.220449 -26.672800 -3.715160 15.226400 -35.769699 -31.247700 -11.878998 180.000000 -28.923004 -180.000000 31.714899 26.381800 50.574005 32.505402 -4.288970 7.728250 43.058800 21.513599 2.851610 -180.000000 38.434006 -180.000000 -35.738998 3.368510 19.165001 4.323952 -3.812935 -75.624052 0.000000 0.000000 93.899200 -10.641563 -3.177100 13.020343 0.000000 0.000000 -37.162500 12.499242 -0.123634 -71.102089 0.000000 0.000000 87.612900 12.500273 4.003378 14.088076 0.000000 0.000000 -42.331400 
-17.215804 6.719826 38.748738 -174.963526 -5.471569 -173.482420 11.325988 8.078463 0.518654 -11.043121 -7.348698 -14.128732 0.000000 0.000000 0.000000 2.569924 -1.000261 7.715908 -23.972743 -4.813643 -83.370677 -26.538500 -3.691760 15.051900 -35.477200 -31.449600 -12.130005 180.000000 -28.932999 -180.000000 31.577200 26.544701 50.371002 32.437099 -4.255150 7.767270 42.903400 21.720501 3.119080 180.000000 38.395996 180.000000 -36.169498 3.830490 19.437799 4.327222 -3.684437 -75.572858 0.000000 0.000000 93.873199 -10.671744 -3.211380 13.070117 0.000000 0.000000 -37.215700 12.471939 0.012880 -71.025906 0.000000 0.000000 87.535301 12.554143 4.019625 14.092157 0.000000 0.000000 -42.193199 
-17.213986 6.721696 38.750560 -174.956600 -5.398619 -173.532447 10.963608 8.165014 0.399274 -10.611663 -7.412652 -14.355515 0.000000 0.000000 0.000000 2.989020 -0.878570 8.260884 -23.769660 -4.280666 -83.364808 -26.495300 -3.733950 14.905400 -35.101299 -31.637600 -12.502991 -180.000000 -28.923004 180.000000 31.677299 26.619400 50.191986 32.415100 -4.257500 8.022640 42.580502 22.212799 2.984830 180.000000 38.453995 180.000000 -36.250500 4.385310 19.409700 4.334964 -3.586960 -75.517568 0.000000 0.000000 93.851501 -10.716889 -3.262686 13.141371 0.000000 0.000000 -37.245199 12.369330 0.172973 -70.951959 0.000000 0.000000 87.470497 12.774850 4.161621 14.140931 0.000000 0.000000 -42.073200 
-17.213450 6.723325 38.752535 -174.937553 -5.347573 -173.576746 10.670958 8.252158 0.383593 -10.206172 -7.539755 -14.757048 0.000000 0.000000 0.000000 3.481179 -0.899083 8.788001 -23.515543 -3.684413 -83.148121 -26.384800 -3.710180 14.785400 -34.896999 -31.777800 -12.678009 180.000000 -28.917999 -180.000000 32.193802 26.402800 50.234985 32.277599 -4.175580 7.946520 42.544701 22.270800 3.172260 180.000000 38.395996 180.000000 -36.347698 4.838980 19.985001 4.367570 -3.538939 -75.485705 0.000000 0.000000 93.840302 -10.781117 -3.304817 13.230521 0.000000 0.000000 -37.287701 12.232785 0.329709 -70.904939 0.000000 0.000000 87.423698 13.133984 4.384705 14.255375 0.000000 0.000000 -41.951401 
-17.213904 6.724191 38.754468 -174.905799 -5.318535 -173.613613 10.384358 8.350558 0.381169 -9.771515 -7.695340 -15.278709 0.000000 0.000000 0.000000 4.079777 -1.068167 9.560491 -23.273115 -3.103645 -82.910734 -26.346600 -3.732250 14.795500 -34.719299 -31.863300 -12.894989 180.000000 -28.929993 180.000000 32.607800 26.302500 50.230011 32.203800 -4.188870 8.077900 42.398102 22.493900 3.214700 -180.000000 38.375000 -180.000000 -36.512699 4.780370 20.308300 4.414744 -3.528279 -75.488105 0.000000 0.000000 93.849197 -10.879468 -3.331331 13.336962 0.000000 0.000000 -37.320900 12.082100 0.486560 -70.886057 0.000000 0.000000 87.391701 13.561813 4.640219 14.396287 0.000000 0.000000 -41.868099 
-17.214714 6.723693 38.755879 -174.861198 -5.320470 -173.623325 10.101278 8.438256 0.337172 -9.309698 -7.843382 -15.744763 0.000000 0.000000 0.000000 4.644375 -1.237625 10.296893 -23.052985 -2.540886 -82.656475 -26.384600 -3.679400 14.701700 -34.670700 -31.941299 -12.976013 180.000000 -28.983002 -180.000000 32.838402 26.370100 50.274994 32.167999 -4.234850 8.115360 42.307999 22.571899 3.057170 180.000000 38.462006 -180.000000 -36.125599 5.195670 20.420500 4.502965 -3.567539 -75.553986 0.000000 0.000000 93.897202 -11.022142 -3.382497 13.466380 0.000000 0.000000 -37.298401 11.916623 0.656184 -70.902451 0.000000 0.000000 87.393402 14.023243 4.916545 14.500068 0.000000 0.000000 -41.680401 
-17.215817 6.722467 38.757057 -174.812262 -5.338856 -173.546607 9.810217 8.520643 0.274192 -8.845641 -8.039170 -16.406519 0.000000 0.000000 0.000000 5.254979 -1.424764 11.302624 -22.810980 -1.994636 -82.468895 -26.428301 -3.573090 14.749100 -34.820702 -31.924601 -12.932007 180.000000 -29.138000 -180.000000 32.812401 26.301100 50.058990 32.248600 -4.308020 8.374070 42.062000 22.698400 2.777920 -180.000000 38.587997 -180.000000 -36.166100 5.450480 20.748899 4.625799 -3.634876 -75.731598 0.000000 0.000000 93.964699 -11.277851 -3.473416 13.620552 0.000000 0.000000 -37.268400 11.757947 0.837310 -71.007071 0.000000 0.000000 87.408302 14.581388 5.173586 14.568277 0.000000 0.000000 -41.444901 
-17.216776 6.719305 38.757008 -174.792275 -5.404277 -173.396244 9.401830 8.612049 0.154330 -8.207134 -8.271711 -17.116162 0.000000 0.000000 0.000000 5.822733 -1.690772 12.295753 -22.673572 -1.502872 -82.199071 -26.564400 -3.413750 14.820400 -35.199799 -31.834700 -12.852997 -180.000000 -29.304001 180.000000 32.177502 26.733700 49.476990 32.218498 -4.413510 8.515430 41.993401 22.611500 2.723640 180.000000 38.720993 180.000000 -36.448799 5.737910 21.062799 4.754261 -3.752207 -76.002897 0.000000 0.000000 94.056297 -11.572845 -3.616691 13.781467 0.000000 0.000000 -37.196699 11.592580 0.986445 -71.226970 0.000000 0.000000 87.500801 15.041021 5.375333 14.593825 0.000000 0.000000 -41.197300 
-17.216316 6.715560 38.757094 -174.770117 -5.426164 -173.179836 8.933823 8.790751 0.118977 -7.489632 -8.508217 -18.135004 0.000000 0.000000 0.000000 6.372280 -1.965277 13.634068 -22.516035 -1.065560 -81.934020 -26.747400 -3.205700 15.092600 -35.742500 -31.685400 -12.618988 -180.000000 -29.602997 180.000000 31.466999 27.012501 49.049011 32.242699 -4.578240 8.742550 41.924801 22.366301 2.423810 180.000000 38.824005 -180.000000 -36.452000 5.550240 21.200100 4.899725 -3.804962 -76.331811 0.000000 0.000000 94.162102 -11.874752 -3.802477 13.908652 0.000000 0.000000 -37.194099 11.404549 1.273517 -71.497744 0.000000 0.000000 87.586197 15.708881 5.516080 14.574344 0.000000 0.000000 -40.829901 
-17.215732 6.712026 38.754370 -174.772043 -5.452506 -172.927304 8.431401 8.969750 0.010269 -6.797578 -8.705202 -19.108310 0.000000 0.000000 0.000000 6.934661 -2.284949 14.904396 -22.307673 -0.680135 -81.744175 -27.027800 -2.982130 15.467700 -36.263901 -31.490400 -12.377014 -180.000000 -29.966995 -180.000000 30.608500 27.138100 48.877014 32.360298 -4.830420 9.130910 41.812698 22.156700 1.855610 180.000000 38.975006 180.000000 -36.378502 5.510900 21.181101 5.032979 -3.859461 -76.653593 0.000000 0.000000 94.260902 -12.264092 -4.032931 13.967887 0.000000 0.000000 -37.064501 11.211753 1.562485 -71.790846 0.000000 0.000000 87.699097 16.281098 5.603196 14.488754 0.000000 0.000000 -40.451500 
-17.214765 6.709952 38.750281 -174.750880 -5.466893 -172.621736 8.146385 9.201347 0.096148 -6.568200 -8.756607 -20.370581 0.000000 0.000000 0.000000 7.892668 -3.038280 15.932987 -22.230894 -0.001192 -81.427696 -27.060600 -2.824330 16.111500 -36.969799 -31.342199 -11.937012 -180.000000 -30.313004 180.000000 29.563700 27.154600 48.627991 32.564499 -5.489590 9.391260 41.930801 21.764799 1.199760 -180.000000 39.082993 -180.000000 -35.946301 5.429970 21.388700 5.232349 -3.897364 -76.993211 0.000000 0.000000 94.339699 -12.701016 -4.366961 13.988805 0.000000 0.000000 -36.930599 10.984359 1.974281 -72.083001 0.000000 0.000000 87.752701 16.944547 5.660934 14.382299 0.000000 0.000000 -40.162600 
-17.213778 6.704833 38.745140 -174.712130 -5.473951 -172.448238 7.779309 9.359279 -0.010338 -6.148450 -8.839413 -21.079375 0.000000 0.000000 0.000000 8.487450 -3.352208 16.958388 -22.048084 0.507462 -81.228251 -27.320999 -2.751960 16.553101 -37.456402 -31.155899 -11.988007 180.000000 -30.563995 180.000000 28.111200 27.632500 48.096985 32.675701 -5.755150 9.647340 42.109798 21.256599 0.161907 180.000000 39.195007 180.000000 -35.412300 5.282400 21.323000 5.467466 -3.942447 -77.213089 0.000000 0.000000 94.465401 -13.346221 -4.800387 13.936096 0.000000 0.000000 -36.651899 10.866831 2.278114 -72.305993 0.000000 0.000000 87.880402 17.378923 5.611402 14.337233 0.000000 0.000000 -40.057400 
-17.212449 6.696992 38.739530 -174.644182 -5.482268 -172.290451 7.092044 9.533949 -0.517194 -5.112765 -8.931247 -20.978937 0.000000 0.000000 0.000000 8.850576 -3.585027 17.362392 -21.876029 0.787005 -81.139004 -27.948700 -2.671900 16.640499 -37.609299 -30.911900 -12.095001 180.000000 -30.764999 -180.000000 27.344400 27.775101 47.968994 32.603401 -5.796120 9.745240 42.068100 20.922400 -0.870771 180.000000 39.343994 -180.000000 -35.523899 4.921190 21.007999 5.774039 -3.976921 -77.447482 0.000000 0.000000 94.646599 -13.986972 -5.367830 13.858148 0.000000 0.000000 -36.285000 10.811033 2.572626 -72.542902 0.000000 0.000000 88.050903 17.536806 5.459958 14.264027 0.000000 0.000000 -40.061199 
-17.212336 6.691159 38.734338 -174.575280 -5.502183 -172.243149 6.742502 9.620364 -0.700651 -4.633593 -8.998190 -21.141420 0.000000 0.000000 0.000000 9.380800 -3.971135 17.580121 -21.726597 1.383221 -80.709915 -28.224400 -2.677280 16.796900 -37.843101 -30.575701 -12.072998 -180.000000 -30.929001 -180.000000 26.826900 27.837799 47.915009 32.596001 -5.974240 9.870610 42.095001 20.588800 -1.757370 -180.000000 39.507996 -180.000000 -36.064201 4.560910 20.394300 6.094037 -4.044931 -77.550664 0.000000 0.000000 94.771500 -14.400475 -5.973600 13.851623 0.000000 0.000000 -36.121700 10.776797 2.789648 -72.650225 0.000000 0.000000 88.195297 17.576862 5.292278 14.175075 0.000000 0.000000 -39.986601 
-17.212657 6.686493 38.730893 -174.512435 -5.529321 -172.223526 6.385949 9.715023 -0.824614 -4.107063 -9.075612 -21.275440 0.000000 0.000000 0.000000 9.924026 -4.540304 17.564575 -21.717353 1.954062 -80.153548 -28.498100 -2.725310 16.999800 -37.909801 -30.286400 -12.250000 180.000000 -31.087997 -180.000000 26.525101 27.770901 47.635010 32.449600 -6.114510 9.882760 42.166199 20.180799 -2.652300 180.000000 39.703003 -180.000000 -36.269901 4.340350 19.906200 6.341763 -4.085344 -77.632079 0.000000 0.000000 94.844597 -14.728080 -6.467417 13.948264 0.000000 0.000000 -36.248400 10.731163 2.975631 -72.706221 0.000000 0.000000 88.282097 17.646289 5.210695 14.089463 0.000000 0.000000 -39.979300 
